<?xml version="1.0" encoding="UTF-8" standalone="no"?>
<svg
   width="100%"
   height="100%"
   viewBox="0 0 1080 1080"
   version="1.1"
   xml:space="preserve"
   style="fill-rule:evenodd;clip-rule:evenodd;stroke-linecap:round;stroke-linejoin:round;stroke-miterlimit:1.5;"
   id="svg11"
   sodipodi:docname="seismic-logo.svg"
   inkscape:version="1.4.4 (dcaf3e7d9e, 2026-05-05)"
   inkscape:export-filename="seismic-logo.png"
   inkscape:export-xdpi="96"
   inkscape:export-ydpi="96"
   xmlns:inkscape="http://www.inkscape.org/namespaces/inkscape"
   xmlns:sodipodi="http://sodipodi.sourceforge.net/DTD/sodipodi-0.dtd"
   xmlns="http://www.w3.org/2000/svg"
   xmlns:svg="http://www.w3.org/2000/svg"><defs
   id="defs11" /><sodipodi:namedview
   id="namedview11"
   pagecolor="#505050"
   bordercolor="#eeeeee"
   borderopacity="1"
   inkscape:showpageshadow="0"
   inkscape:pageopacity="0"
   inkscape:pagecheckerboard="0"
   inkscape:deskcolor="#505050"
   inkscape:zoom="0.32"
   inkscape:cx="362.5"
   inkscape:cy="531.25"
   inkscape:window-width="1428"
   inkscape:window-height="848"
   inkscape:window-x="0"
   inkscape:window-y="0"
   inkscape:window-maximized="1"
   inkscape:current-layer="svg11" />
    <rect
   x="0"
   y="0"
   width="1080"
   height="1080"
   style="display:none;fill:#111111"
   id="rect1" />
    <g
   id="g11"
   transform="matrix(1.6108239,0,0,1.6089904,-327.40893,-329.25543)">
        <path
   style="clip-rule:evenodd;fill:#da7757;fill-opacity:0.2;fill-rule:evenodd;stroke:#da7757;stroke-width:9.188;stroke-linecap:round;stroke-linejoin:round;stroke-miterlimit:1.5;stroke-dasharray:none;stroke-opacity:1;paint-order:stroke markers fill"
   d="M 368.107,223.899 H 704.02 L 831.873,360.198 721.055,480.124 833.106,610.77 832.252,736.673 719.917,856.599 368.489,856.219 248.184,723.77 359.063,603.605 239.862,488.16 240.348,360.401 Z"
   id="path12" /><path
   d="M 704.02,223.899 H 368.107 L 240.348,360.401 239.862,488.16 359.063,603.605 248.184,723.77 368.489,856.219 719.917,856.599 832.252,736.673 833.106,610.77 721.055,480.124 831.873,360.198 Z"
   style="fill:none;stroke:#da7757;stroke-width:38.5284;stroke-dasharray:none"
   id="path1" />
        <path
   d="M 359.063,603.605 480.55,727.383 721.055,727.535 600.028,603.359 Z"
   style="fill:none;stroke:#da7757;stroke-width:8.76507;stroke-dasharray:none"
   id="path2" />
        <path
   d="M 704.02,223.899 600.028,356.019 368.799,356.99 368.107,223.899"
   style="fill:none;stroke:#da7757;stroke-width:8.76507;stroke-dasharray:none"
   id="path3" />
        <path
   d="M 368.799,356.99 239.862,488.16"
   style="fill:none;stroke:#da7757;stroke-width:8.76507;stroke-dasharray:none"
   id="path4" />
        <path
   d="M 600.028,356.019 721.055,480.124"
   style="fill:none;stroke:#da7757;stroke-width:8.76507;stroke-dasharray:none"
   id="path5" />
        <path
   d="M 368.107,357.695 480.55,480.138 721.055,480.124"
   style="fill:none;stroke:#da7757;stroke-width:8.76507;stroke-dasharray:none"
   id="path6" />
        <path
   d="M 480.55,480.138 359.063,603.605"
   style="fill:none;stroke:#da7757;stroke-width:8.76507;stroke-dasharray:none"
   id="path7" />
        <path
   d="M 600.028,603.359 721.055,480.124"
   style="fill:none;stroke:#da7757;stroke-width:8.76507;stroke-dasharray:none"
   id="path8" />
        <path
   d="M 721.055,727.535 833.106,610.77"
   style="fill:none;stroke:#da7757;stroke-width:8.76507;stroke-dasharray:none"
   id="path9" />
        <path
   d="m 721.055,727.535 -1.138,129.064"
   style="fill:none;stroke:#da7757;stroke-width:8.76507;stroke-dasharray:none"
   id="path10" />
        <path
   d="M 480.55,727.383 368.489,856.219"
   style="fill:none;stroke:#da7757;stroke-width:8.76507;stroke-dasharray:none"
   id="path11" />
    </g>
</svg>
